<svg xmlns="http://www.w3.org/2000/svg" version="1.1" xmlns:xlink="http://www.w3.org/1999/xlink" xmlns:svgjs="http://svgjs.com/svgjs" width="1440" height="560" preserveAspectRatio="none" viewBox="0 0 1440 560"><g mask="url(&quot;#SvgjsMask1000&quot;)" fill="none"><rect width="1440" height="560" x="0" y="0" fill="#0e2a47"></rect><g transform="translate(0, 0)" stroke-linecap="round"><path d="M260 224.18 L260 335.82" stroke-width="15" stroke="#dd1133"></path><path d="M280 242.34 L280 317.65" stroke-width="15" stroke="#dd1133"></path><path d="M300 241.5 L300 318.5" stroke-width="15" stroke="#3a7cc3"></path><path d="M320 185.16 L320 374.84" stroke-width="15" stroke="#dd1133"></path><path d="M340 260.54 L340 299.46" stroke-width="15" stroke="#3a7cc3"></path><path d="M360 117.43 L360 442.57" stroke-width="15" stroke="#3a7cc3"></path><path d="M380 148.49 L380 411.51" stroke-width="15" stroke="#3a7cc3"></path><path d="M400 186.31 L400 373.69" stroke-width="15" stroke="#dd1133"></path><path d="M420 128.38 L420 431.62" stroke-width="15" stroke="#3a7cc3"></path><path d="M440 226.89 L440 333.11" stroke-width="15" stroke="#dd1133"></path><path d="M460 108.42 L460 451.58" stroke-width="15" stroke="#3a7cc3"></path><path d="M480 134.25 L480 425.75" stroke-width="15" stroke="#dd1133"></path><path d="M500 254.87 L500 305.13" stroke-width="15" stroke="#3a7cc3"></path><path d="M520 223.15 L520 336.85" stroke-width="15" stroke="#3a7cc3"></path><path d="M540 210.66 L540 349.35" stroke-width="15" stroke="#3a7cc3"></path><path d="M560 138.59 L560 421.41" stroke-width="15" stroke="#dd1133"></path><path d="M580 252.31 L580 307.69" stroke-width="15" stroke="#3a7cc3"></path><path d="M600 211.47 L600 348.52" stroke-width="15" stroke="#dd1133"></path><path d="M620 112.04 L620 447.96" stroke-width="15" stroke="#3a7cc3"></path><path d="M640 170.54 L640 389.46" stroke-width="15" stroke="#dd1133"></path><path d="M660 130.94 L660 429.06" stroke-width="15" stroke="#3a7cc3"></path><path d="M680 119.59 L680 440.41" stroke-width="15" stroke="#dd1133"></path><path d="M700 255.94 L700 304.06" stroke-width="15" stroke="#dd1133"></path><path d="M720 140.71 L720 419.29" stroke-width="15" stroke="#3a7cc3"></path><path d="M740 194.66 L740 365.34" stroke-width="15" stroke="#dd1133"></path><path d="M760 141.4 L760 418.6" stroke-width="15" stroke="#3a7cc3"></path><path d="M780 131.61 L780 428.39" stroke-width="15" stroke="#dd1133"></path><path d="M800 242.03 L800 317.97" stroke-width="15" stroke="#dd1133"></path><path d="M820 140.79 L820 419.21" stroke-width="15" stroke="#3a7cc3"></path><path d="M840 187.82 L840 372.18" stroke-width="15" stroke="#3a7cc3"></path><path d="M860 162.53 L860 397.47" stroke-width="15" stroke="#3a7cc3"></path><path d="M880 106.16 L880 453.84" stroke-width="15" stroke="#3a7cc3"></path><path d="M900 188.56 L900 371.44" stroke-width="15" stroke="#3a7cc3"></path><path d="M920 231.24 L920 328.76" stroke-width="15" stroke="#3a7cc3"></path><path d="M940 126.28 L940 433.72" stroke-width="15" stroke="#3a7cc3"></path><path d="M960 172.8 L960 387.2" stroke-width="15" stroke="#3a7cc3"></path><path d="M980 115.22 L980 444.77" stroke-width="15" stroke="#3a7cc3"></path><path d="M1000 220.94 L1000 339.06" stroke-width="15" stroke="#3a7cc3"></path><path d="M1020 158.69 L1020 401.31" stroke-width="15" stroke="#3a7cc3"></path><path d="M1040 132.51 L1040 427.49" stroke-width="15" stroke="#3a7cc3"></path><path d="M1060 171.05 L1060 388.95" stroke-width="15" stroke="#3a7cc3"></path><path d="M1080 240.1 L1080 319.89" stroke-width="15" stroke="#dd1133"></path><path d="M1100 154.24 L1100 405.76" stroke-width="15" stroke="#dd1133"></path><path d="M1120 108.05 L1120 451.95" stroke-width="15" stroke="#dd1133"></path><path d="M1140 211.82 L1140 348.18" stroke-width="15" stroke="#dd1133"></path><path d="M1160 254.43 L1160 305.57" stroke-width="15" stroke="#3a7cc3"></path><path d="M1180 238.06 L1180 321.94" stroke-width="15" stroke="#dd1133"></path></g></g><defs><mask id="SvgjsMask1000"><rect width="1440" height="560" fill="#ffffff"></rect></mask></defs></svg>